<svg xmlns="http://www.w3.org/2000/svg" width="40" height="40" viewBox="0 0 400 400">
  <!-- {|>} in Galvji, converted to outlines (font-independent). -->
  <path fill="#ffffff" fill-rule="nonzero" d="M40.925073746312684 196.57345132743365V198.96165191740414Q59.71917404129793 200.62300884955755 59.71917404129793 223.98584070796463V260.7433628318584Q59.71917404129793 269.153982300885 62.21120943952803 274.4495575221239Q64.70324483775812 279.74513274336283 70.20648967551622 282.3410029498525Q75.70973451327433 284.9368731563422 84.95103244837759 284.9368731563422H89.51976401179942V299.1622418879056H83.70501474926255Q43.209439528023594 299.1622418879056 43.209439528023594 261.7817109144543V230.21592920353984Q43.209439528023594 217.96342182890857 39.2117994100295 212.7716814159292Q35.2141592920354 207.57994100294988 24.0 207.57994100294988V188.16283185840712Q35.2141592920354 188.16283185840712 39.2117994100295 182.97109144542776Q43.209439528023594 177.7793510324484 43.209439528023594 165.21533923303838V137.07610619469028Q43.209439528023594 117.8666666666667 53.592920353982294 109.35221238938055Q63.976401179941 100.8377581120944 83.70501474926255 100.8377581120944H89.51976401179942V115.06312684365784H84.95103244837759Q71.34867256637168 115.06312684365784 65.5339233038348 120.77404129793513Q59.71917404129793 126.48495575221241 59.71917404129793 139.04896755162244V171.4454277286136Q59.71917404129793 194.60058997050152 40.925073746312684 196.57345132743365Z M143.72153392330384 298.74690265486726H128.97699115044247V101.25309734513277H143.72153392330384Z M287.84424778761064 198.75398230088496V214.01769911504425L192.31622418879059 268.11563421828913V248.80235988200593L269.8808259587021 206.02241887905606V205.19174041297936L192.31622418879059 159.60825958702065V140.39882005899707Z M359.1787610619469 198.96165191740414V196.57345132743365Q340.38466076696164 194.60058997050152 340.38466076696164 171.4454277286136V139.04896755162244Q340.38466076696164 126.48495575221241 334.62182890855456 120.77404129793513Q328.8589970501475 115.06312684365784 315.2566371681416 115.06312684365784H310.5840707964602V100.8377581120944H316.60648967551623Q336.23126843657815 100.8377581120944 346.51091445427727 109.35221238938055Q356.7905604719764 117.8666666666667 356.7905604719764 137.07610619469028V165.21533923303838Q356.7905604719764 177.7793510324484 360.78820058997053 182.97109144542776Q364.7858407079646 188.16283185840712 376.0 188.16283185840712V207.57994100294988Q364.7858407079646 207.57994100294988 360.78820058997053 212.7716814159292Q356.7905604719764 217.96342182890857 356.7905604719764 230.21592920353984V261.7817109144543Q356.7905604719764 299.1622418879056 316.60648967551623 299.1622418879056H310.5840707964602V284.9368731563422H315.2566371681416Q328.8589970501475 284.9368731563422 334.62182890855456 279.2259587020649Q340.38466076696164 273.5150442477876 340.38466076696164 260.7433628318584V223.98584070796463Q340.38466076696164 200.62300884955755 359.1787610619469 198.96165191740414Z"/>
</svg>
